<?xml version="1.0" encoding="UTF-8"?>
<svg id="Layer_1" xmlns="http://www.w3.org/2000/svg" viewBox="0 0 41.15 45.68">
  <defs>
    <style>
      .cls-1 {
        fill: #00a79d;
      }

      .cls-1, .cls-2 {
        stroke: #00a79d;
        stroke-miterlimit: 10;
      }

      .cls-3 {
        fill: #fff;
      }

      .cls-4 {
        fill: #74ccce;
      }

      .cls-2 {
        fill: none;
        stroke-width: .5px;
      }
    </style>
  </defs>
  <path class="cls-2" d="M1.24,21.16C2.07,12.96,7.98,6.25,15.79,4.24"/>
  <path class="cls-2" d="M15.79,42.04c-7.41-1.91-13.12-8.05-14.38-15.7"/>
  <path class="cls-2" d="M39.91,26.34c-1.26,7.61-6.91,13.73-14.27,15.67"/>
  <path class="cls-2" d="M25.65,4.27c7.74,2.04,13.6,8.72,14.43,16.89"/>
  <circle class="cls-1" cx="20.66" cy="22.93" r="14.73"/>
  <circle class="cls-4" cx="1.07" cy="23.51" r="1.07"/>
  <circle class="cls-4" cx="40.08" cy="23.51" r="1.07"/>
  <path class="cls-4" d="M20.66,0c0,1.88-1.52,3.4-3.4,3.4,1.88,0,3.4,1.52,3.4,3.4h0c.04-1.89,1.54-3.4,3.4-3.4-1.88,0-3.4-1.52-3.4-3.4Z"/>
  <path class="cls-4" d="M20.66,38.88c0,1.88-1.52,3.4-3.4,3.4,1.88,0,3.4,1.52,3.4,3.4h0c.04-1.89,1.54-3.4,3.4-3.4-1.88,0-3.4-1.52-3.4-3.4Z"/>
  <g>
    <rect class="cls-3" x="14.73" y="27.38" width="11.86" height="2.22"/>
    <g>
      <polygon class="cls-3" points="24.25 21.77 26.61 26.51 28.07 19.22 24.25 21.77"/>
      <polygon class="cls-3" points="17.07 21.77 13.25 19.22 14.71 26.51 17.07 21.77"/>
    </g>
    <polygon class="cls-3" points="20.66 16.26 15.47 26.63 19.07 26.63 20.66 23.45 22.25 26.63 25.85 26.63 20.66 16.26"/>
  </g>
</svg>